<?xml version="1.0" encoding="UTF-8"?>
<svg width="27px" height="26px" viewBox="0 0 27 26" version="1.1" xmlns="http://www.w3.org/2000/svg" xmlns:xlink="http://www.w3.org/1999/xlink">
    <!-- Generator: Sketch 63.1 (92452) - https://sketch.com -->
    <title>dianhua</title>
    <desc>Created with Sketch.</desc>
    <g id="PC" stroke="none" stroke-width="1" fill="none" fill-rule="evenodd">
        <g id="首页2" transform="translate(-1054.000000, -449.000000)" fill="#222222" fill-rule="nonzero">
            <g id="编组-9" transform="translate(120.000000, 402.000000)">
                <g id="编组-8" transform="translate(934.000000, 47.000000)">
                    <g id="dianhua" transform="translate(0.000000, 0.000000)">
                        <path d="M18.6614934,26 C17.7462676,26 17.0792386,25.8761458 16.8155295,25.8142187 C15.6365945,25.7522916 14.0543397,24.9782028 12.9219416,24.3124865 C11.3086622,23.3835799 9.50923514,22.0831108 7.88044341,20.6587874 C6.01896715,19.0486828 4.39017542,17.2837604 3.13367894,15.5652833 C1.64449793,13.5216889 0.682735199,11.5245399 0.294927645,9.63576326 C-0.31005214,6.67874414 0.0157062059,4.37195958 1.27220268,2.7773367 C2.74587139,0.888560087 4.93310599,0.780187658 5.02617981,0.764705882 L5.08822902,0.764705882 C5.18130283,0.764705882 6.03447945,0.795669433 7.05829139,1.18271382 C8.46991089,1.72457597 9.52474744,2.69992782 10.0987026,4.01587874 C10.5485594,5.03767593 10.5950963,5.98206424 10.2383133,6.92645254 C9.9435796,7.70054132 9.44718593,8.31981234 8.95079226,8.92360159 C8.5164478,9.44998196 8.11312794,9.96088055 7.89595571,10.5027427 C7.89595571,10.549188 7.89595571,10.7968964 8.25273866,11.4006857 C8.5474724,11.9115843 9.02835377,12.5308553 9.61782125,13.1810899 C10.6881701,14.3731866 12.1463265,15.6581739 13.4803845,16.618044 C15.1246885,17.794659 16.0399144,18.0888127 16.3346481,18.0733309 C17.9479275,18.0114038 19.871453,16.5251534 20.4298959,16.0761819 C20.848728,15.7355828 21.3761463,15.5652833 21.9190769,15.5962468 C24.0907992,15.7355828 25.5644679,16.4477445 26.2935461,17.6862865 C26.7434028,18.4448935 26.8675013,19.4047636 26.6813536,20.4265608 C26.5417429,21.1542043 26.2935461,21.6651029 26.2625215,21.72703 L26.2470092,21.7734753 L26.2159846,21.8199206 C24.4010452,24.6685673 21.9035646,25.6129556 20.1506744,25.8916276 C19.6077438,25.9690364 19.0958379,26 18.6614934,26 L18.6614934,26 Z M17.1723124,24.002851 C17.2188493,24.0183327 18.4132966,24.2970047 19.9335022,24.0492963 C21.9035646,23.724179 23.4858194,22.6559365 24.6182175,20.8755323 C24.8043651,20.4575244 25.1301234,19.3738001 24.6802667,18.6151931 C24.183873,17.7791772 22.849815,17.515987 21.8104908,17.4385781 C21.7329292,17.4385781 21.67088,17.4540599 21.6088308,17.5005052 C20.5539943,18.3674847 18.4598335,19.8382533 16.4122096,19.931144 L16.3346481,19.931144 C14.9850778,19.931144 13.04604,18.6461566 11.6499328,17.5624323 C9.83499348,16.1535908 8.14415254,14.4660772 7.1358529,13.0572357 C6.17409017,11.725803 5.86384412,10.6730422 6.17409017,9.85250812 C6.49984851,9.03197402 7.04277909,8.35077589 7.52366046,7.74698665 C8.46991089,6.58585348 8.93527996,5.93561891 8.42337398,4.75900397 C8.03556643,3.89202454 7.36853744,3.27275352 6.4067747,2.91667268 C5.77077031,2.66896427 5.24335204,2.62251895 5.10374132,2.62251895 C4.87105679,2.63800072 3.59904801,2.80830025 2.74587139,3.93846987 C1.86167016,5.09960303 1.66001024,6.88000722 2.1408916,9.26420065 C2.76138369,12.3141104 5.30540125,15.9523277 9.10591528,19.2809094 C10.6571455,20.6278239 12.3324741,21.8508842 13.8526797,22.7178636 C15.4349346,23.6312883 16.4897711,23.9564056 16.9551402,23.9718874 L17.0637263,23.9718874 L17.1723124,24.002851 L17.1723124,24.002851 Z" id="形状"></path>
                        <path d="M20.4464337,14.5294118 L20.3515803,14.5294118 C19.8298865,14.4819495 19.4504729,14.0231481 19.4978996,13.5010637 C19.6717975,11.6816786 19.276575,10.2261705 18.3438498,9.16618097 C16.715533,7.33097515 13.9489752,7.23605071 13.9173574,7.23605071 C13.3956637,7.22022997 12.9846323,6.79307 13.0004412,6.27098558 C13.0162501,5.74890117 13.4430904,5.33756193 13.9647841,5.35338267 C14.1070643,5.35338267 17.5850225,5.47994859 19.750842,7.91634252 C21.0471719,9.37185058 21.5846746,11.3178016 21.3633499,13.6909126 C21.3317321,14.149714 20.9207007,14.5294118 20.4464337,14.5294118 L20.4464337,14.5294118 Z" id="路径"></path>
                        <path d="M25.6979031,13 L25.5892822,13 C25.0772124,12.9378012 24.7203152,12.4713104 24.7823843,11.9581706 C25.1392815,9.05037806 24.5496252,6.71792416 23.0444502,5.03855735 C20.1427209,1.80422127 14.7582287,1.86642004 14.7116769,1.86642004 C14.199607,1.88196974 13.7806408,1.46212804 13.7651235,0.948988177 C13.7496062,0.435848319 14.1685725,0.0160066166 14.6806423,0.000456923935 C14.7427114,0.000456923935 16.2634038,-0.0306424614 18.2185796,0.420298626 C19.3668575,0.684643402 20.437549,1.05783603 21.3841024,1.52432681 C22.5944494,2.11521513 23.6185891,2.87715007 24.4410044,3.79458194 C26.3341111,5.89379045 27.07894,8.72383451 26.6444565,12.191416 C26.5668702,12.6579068 26.1634212,13 25.6979031,13 Z" id="路径"></path>
                    </g>
                </g>
            </g>
        </g>
    </g>
</svg>